<svg width="70" height="80" viewBox="0 0 70 80" fill="none" xmlns="http://www.w3.org/2000/svg">
<g clip-path="url(#clip0_936_2593)">
<path d="M44.6678 51.4422H30.9648L31.6654 50.3076H45.3684L44.6678 51.4422Z" fill="#CCB46B"/>
<path d="M40.4082 71.5045C40.4082 74.7145 43.0423 77.3156 46.3209 77.3156C49.5996 77.3156 52.2337 74.7145 52.2337 71.5045C52.2337 68.2945 49.5996 65.6934 46.3209 65.6934C43.0423 65.6934 40.4082 68.2945 40.4082 71.5045ZM46.3209 67.7411C48.4226 67.7411 50.132 69.4291 50.132 71.5045C50.132 73.5799 48.4226 75.2679 46.3209 75.2679C44.2193 75.2679 42.5099 73.5799 42.5099 71.5045C42.5099 69.4291 44.2193 67.7411 46.3209 67.7411Z" fill="#CCB46B"/>
<path d="M47.246 63.0364L50.8889 57.1699H48.2548L44.5278 63.1748L42.7343 66.0527C43.6871 65.4715 44.78 65.0841 45.985 65.0565C46.097 65.0565 46.1811 65.0565 46.2932 65.0565C49.9081 65.0565 52.8504 67.962 52.8504 71.5317C52.8504 75.1014 49.9081 78.007 46.2932 78.007C42.6783 78.007 39.792 75.1014 39.736 71.5317C39.736 70.3418 40.0442 69.235 40.5766 68.2941L40.6046 68.2388C40.6327 68.1834 40.6607 68.1281 40.7167 68.0727C40.7167 68.0727 40.7167 68.0451 40.7448 68.0174L43.575 63.4515L47.4701 57.1976H44.836L38.8673 67.2149C38.587 67.6853 38.3348 68.2111 38.1387 68.7645C38.4469 69.6224 38.6151 70.5632 38.6151 71.5317C38.6151 72.5003 38.4469 73.4411 38.1387 74.2989C39.3156 77.6473 42.5102 80.0271 46.2932 80.0271C51.057 80.0271 54.8961 76.2083 54.8961 71.5317C54.8961 67.1595 51.5334 63.5345 47.2179 63.0641L47.246 63.0364Z" fill="#CCB46B"/>
<path d="M23.4834 71.5047C23.4834 74.7147 26.1175 77.3159 29.3681 77.3159C32.6187 77.3159 35.2808 74.7147 35.2808 71.5047C35.2808 68.2948 32.6467 65.6936 29.3681 65.6936C26.0895 65.6936 23.4834 68.2948 23.4834 71.5047ZM29.3681 67.7413C31.4698 67.7413 33.1792 69.4293 33.1792 71.5047C33.1792 73.5801 31.4698 75.2681 29.3681 75.2681C27.2664 75.2681 25.5571 73.5801 25.5571 71.5047C25.5571 69.4293 27.2664 67.7413 29.3681 67.7413Z" fill="#CCB46B"/>
<path d="M30.3203 63.0364L33.9632 57.1699H31.3291L27.6021 63.1748L25.8087 66.0527C26.7614 65.4715 27.8543 65.0841 29.0593 65.0565C29.1714 65.0565 29.2554 65.0565 29.3675 65.0565C32.9824 65.0565 35.9248 67.962 35.9248 71.5317C35.9248 75.1014 32.9824 78.007 29.3675 78.007C25.7526 78.007 22.8663 75.1014 22.8103 71.5317C22.8103 70.3418 23.1185 69.235 23.651 68.2941L23.679 68.2388C23.707 68.1834 23.735 68.1281 23.7911 68.0727C23.7911 68.0727 23.7911 68.0451 23.8191 68.0174L26.6494 63.4515L30.5445 57.1976H27.9104L21.9416 67.2149C21.185 68.4878 20.7646 69.9544 20.7646 71.5317C20.7646 76.236 24.6317 80.0271 29.3675 80.0271C34.1033 80.0271 37.9704 76.2083 37.9704 71.5317C37.9704 67.1595 34.6077 63.5345 30.2923 63.0641L30.3203 63.0364Z" fill="#CCB46B"/>
<path d="M9.75137 28.53C6.08043 28.53 3.08203 31.4909 3.08203 35.116C3.08203 38.741 6.08043 41.7019 9.75137 41.7019C13.4223 41.7019 16.4207 38.741 16.4207 35.116C16.4207 31.4909 13.4223 28.53 9.75137 28.53ZM9.75137 39.4052C7.36946 39.4052 5.43591 37.4958 5.43591 35.1437C5.43591 32.7915 7.36946 30.8822 9.75137 30.8822C12.1333 30.8822 14.0668 32.7915 14.0668 35.1437C14.0668 37.4958 12.1333 39.4052 9.75137 39.4052Z" fill="#CCB46B"/>
<path d="M67.6457 33.5939V37.9108C67.6457 40.4289 65.6001 42.449 63.0781 42.449C60.5561 42.449 58.5104 40.4289 58.5104 37.9384V7.08405C58.5104 4.98097 56.8011 3.29298 54.6714 3.29298C52.5417 3.29298 50.8323 4.98097 50.8323 7.08405V37.8831C50.8323 40.4012 48.7866 42.4213 46.2646 42.4213C43.7426 42.4213 41.697 40.4012 41.697 37.9108V7.08405C41.697 4.98097 39.9876 3.29298 37.8579 3.29298C35.7282 3.29298 34.0188 4.98097 34.0188 7.08405V37.9108C34.0188 40.4012 31.9732 42.4213 29.4512 42.4213C26.9292 42.4213 24.8835 40.4012 24.8835 37.9108V7.08405C24.8835 4.98097 23.1742 3.29298 21.0445 3.29298C18.9148 3.29298 17.2054 4.98097 17.2054 7.08405V34.9498C17.2054 34.9498 17.2054 35.0605 17.2054 35.1159C17.2054 39.156 13.8707 42.4213 9.80747 42.4213C5.74422 42.4213 2.40955 39.1283 2.40955 35.1159C2.40955 31.1034 5.74422 27.8104 9.80747 27.8104C12.7498 27.8104 15.2718 29.4984 16.4768 31.9336V7.08405C16.4768 4.59357 18.5224 2.5735 21.0445 2.5735C23.5665 2.5735 25.6121 4.59357 25.6121 7.08405V37.9108C25.6121 40.0138 27.3215 41.7018 29.4512 41.7018C31.5809 41.7018 33.2903 40.0138 33.2903 37.9108V7.08405C33.2903 4.59357 35.3359 2.5735 37.8579 2.5735C40.3799 2.5735 42.4256 4.59357 42.4256 7.08405V37.9108C42.4256 40.0138 44.1349 41.7018 46.2646 41.7018C48.3943 41.7018 50.1037 39.9862 50.1037 37.8831V7.08405C50.1037 4.59357 52.1493 2.5735 54.6714 2.5735C57.1934 2.5735 59.239 4.59357 59.239 7.08405V37.9108C59.239 40.0138 60.9484 41.7018 63.0781 41.7018C65.2078 41.7018 66.9172 39.9862 66.9172 37.8831V32.9298L64.5633 30.8267V37.6617C64.5633 38.4642 63.8907 39.1283 63.0781 39.1283C62.2654 39.1283 61.5929 38.4642 61.5929 37.6617V6.835C61.5929 3.0716 58.4824 0 54.6714 0C50.8603 0 47.7498 3.0716 47.7498 6.835V37.6617C47.7498 38.4642 47.0773 39.1283 46.2646 39.1283C45.452 39.1283 44.7794 38.4642 44.7794 37.6617V6.835C44.7794 3.0716 41.669 0 37.8579 0C34.0469 0 30.9364 3.0716 30.9364 6.835V37.6617C30.9364 38.4642 30.2638 39.1283 29.4512 39.1283C28.6385 39.1283 27.966 38.4642 27.966 37.6617V6.835C27.966 3.0716 24.8555 0 21.0445 0C17.2334 0 14.1229 3.0716 14.1229 6.835V26.2331C12.8059 25.5967 11.3487 25.2369 9.80747 25.2369C4.42716 25.2369 0.0556641 29.5538 0.0556641 34.8668C0.0556641 40.1799 4.42716 44.4967 9.80747 44.4967C15.1878 44.4967 19.5593 40.1799 19.5593 34.8668C19.5593 34.7008 19.5593 34.5348 19.5593 34.3964V6.835C19.5593 6.03251 20.2318 5.36838 21.0445 5.36838C21.8571 5.36838 22.5296 6.03251 22.5296 6.835V37.6617C22.5296 41.4251 25.6401 44.4967 29.4512 44.4967C33.2622 44.4967 36.3727 41.4251 36.3727 37.6617V6.835C36.3727 6.03251 37.0453 5.36838 37.8579 5.36838C38.6706 5.36838 39.3431 6.03251 39.3431 6.835V37.6617C39.3431 41.4251 42.4536 44.4967 46.2646 44.4967C50.0757 44.4967 53.1862 41.4251 53.1862 37.6617V6.835C53.1862 6.03251 53.8587 5.36838 54.6714 5.36838C55.484 5.36838 56.1565 6.03251 56.1565 6.835V37.6617C56.1565 41.4251 59.267 44.4967 63.0781 44.4967C66.8891 44.4967 69.9996 41.4251 69.9996 37.6617V35.697L67.6457 33.5939Z" fill="#CCB46B"/>
</g>
<defs>
<clipPath id="clip0_936_2593">
<rect width="70" height="80" fill="white"/>
</clipPath>
</defs>
</svg>
