<svg width="19" height="52" viewBox="0 0 19 52" fill="none" xmlns="http://www.w3.org/2000/svg">
<g clip-path="url(#clip0_1129_2)">
<path d="M7.82723 43.9729C7.82723 48.3895 4.32392 52.0002 0 52.0002V49.4724C2.87209 49.4724 5.17608 47.1967 5.17608 44.2953V8.28527C5.17608 5.86742 7.13288 3.86865 9.5 3.86865C11.8671 3.86865 13.8239 5.83518 13.8239 8.28527V44.2953C13.8239 47.229 16.1279 49.4724 19 49.4724V52.0002C14.6761 52.0002 11.1728 48.4218 11.1728 44.0052V7.99516C11.1728 7.06023 10.4153 6.28652 9.5 6.28652C8.58469 6.28652 7.82723 7.06023 7.82723 7.99516V43.9729Z" fill="#CCB46B"/>
<path d="M4.32392 44.2953C4.32392 46.7131 2.39867 48.3889 0 48.3889V45.5C0.915279 45.5 1.67276 44.94 1.67276 44.0051V7.99507C1.67276 3.57844 5.17608 0 9.5 0C13.8239 0 17.3272 3.57844 17.3272 7.99507V44.0051C17.3272 44.94 18.0847 45.5 19 45.5V48.3889C16.6329 48.3889 14.6761 46.7453 14.6761 44.2953V8.28519C14.6761 5.35154 12.3721 2.99815 9.5 2.99815C6.6279 2.99815 4.32392 5.38378 4.32392 8.28519V44.2953Z" fill="#CCB46B"/>
</g>
<defs>
<clipPath id="clip0_1129_2">
<rect width="19" height="52" fill="white"/>
</clipPath>
</defs>
</svg>
